<svg width="48px" height="44px" viewBox="0 0 48 44" version="1.1" xmlns="http://www.w3.org/2000/svg" xmlns:xlink="http://www.w3.org/1999/xlink">
  <path d="M1.7779368,20.3984674 C1.27218967,20.3984674 0.766442544,20.2298851 0.429277793,19.7241379 C-0.245051709,19.0498084 -0.0764693334,17.8697318 0.597860169,17.3639847 L20.4905805,1.01149425 C22.3449866,-0.337164751 25.0423046,-0.337164751 26.7281284,1.01149425 L46.6208487,17.1954023 C47.2951782,17.7011494 47.4637606,18.8812261 46.789431,19.5555556 C46.1151015,20.2298851 45.1036073,20.3984674 44.4292778,19.7241379 L24.7051399,3.87739464 C24.1993927,3.54022989 23.1878985,3.54022989 22.6821514,3.87739464 L2.78943105,20.0613027 C2.4522663,20.3984674 2.11510155,20.3984674 1.7779368,20.3984674 Z M39.7089713,44 L28.7511169,44 C27.7396226,44 27.0652931,43.3256705 27.0652931,42.3141762 L27.0652931,34.3908046 C27.0652931,33.210728 25.0423046,32.0306513 23.5250632,32.0306513 C22.0078219,32.0306513 20.1534157,33.0421456 20.1534157,34.3908046 L20.1534157,42.3141762 C20.1534157,43.3256705 19.4790862,44 18.467592,44 L7.84690231,44 C5.31816668,44 3.46376055,42.1455939 3.46376055,39.7854406 L3.46376055,23.7701149 C3.46376055,22.7586207 4.13809005,22.0842912 5.14958431,22.0842912 C6.16107856,22.0842912 6.83540806,22.7586207 6.83540806,23.7701149 L6.83540806,39.7854406 C6.83540806,40.2911877 7.17257281,40.6283525 7.84690231,40.6283525 L16.9503506,40.6283525 L16.9503506,34.3908046 C16.9503506,31.0191571 20.4905805,28.6590038 23.6936456,28.6590038 C26.8967107,28.6590038 30.605523,31.0191571 30.605523,34.3908046 L30.605523,40.6283525 L39.8775537,40.6283525 C40.3833008,40.6283525 40.7204655,40.6283525 40.7204655,39.6168582 L40.7204655,23.7701149 C40.7204655,22.7586207 41.394795,22.0842912 42.4062893,22.0842912 C43.4177835,22.0842912 44.092113,22.7586207 44.092113,23.7701149 L44.092113,39.7854406 C43.9235307,42.3141762 42.2377069,44 39.7089713,44 Z" id="Shape" stroke="none" fill="#949494" fill-rule="evenodd"></path>
</svg>
