
<svg width="50px" height="77px" viewBox="351 16 50 77" version="1.1" xmlns="http://www.w3.org/2000/svg" xmlns:xlink="http://www.w3.org/1999/xlink">
  <!-- Generator: Sketch 42 (36781) - http://www.bohemiancoding.com/sketch -->
  <g id="客服" stroke="none" stroke-width="1" fill="none" fill-rule="evenodd" transform="translate(351.000000, 16.000000)">
    <g id="community" fill="#FD9153">
      <path d="M35.42,33.264 C38.236,33.264 40.7,30.976 40.7,27.984 L40.7,5.28 C40.7,2.464 38.412,0 35.42,0 L5.324,0 C2.508,0 0.044,2.288 0.044,5.28 L0.044,27.984 C0.044,30.8 2.332,33.264 5.324,33.264 L7.26,33.264 L7.26,42.064 C7.26,42.768 7.788,43.472 8.492,43.824 L9.02,43.824 C9.548,43.824 10.076,43.648 10.428,43.12 L17.644,33.264 L35.42,33.264 Z M9.548,29.92 C9.372,29.744 9.02,29.744 8.844,29.744 L5.324,29.744 C4.444,29.744 3.564,29.04 3.564,27.984 L3.564,5.28 C3.564,4.4 4.268,3.52 5.324,3.52 L35.42,3.52 C36.3,3.52 37.18,4.224 37.18,5.28 L37.18,27.984 C37.18,28.864 36.476,29.744 35.42,29.744 L16.764,29.744 L16.236,29.744 C16.06,29.92 16.06,29.92 15.884,29.92 C15.708,29.92 15.708,30.096 15.532,30.096 L15.356,30.272 C15.356,30.272 15.18,30.272 15.18,30.448 L10.78,36.784 L10.78,31.68 C10.78,30.8 10.252,30.272 9.548,29.92 Z" id="Shape"></path>
      <path d="M44.22,6.864 C43.164,6.864 42.46,7.568 42.46,8.624 C42.46,9.68 43.34,10.384 44.22,10.384 C45.1,10.384 45.98,11.088 45.98,12.144 L45.98,31.328 C45.98,32.384 45.1,32.736 44.22,32.736 L42.46,32.736 C41.404,32.736 40.7,33.44 40.7,34.496 L40.7,34.672 C40.7,34.848 40.524,35.024 40.524,35.2 L40.524,38.544 L36.476,35.376 C36.3,35.2 35.948,35.2 35.596,35.2 L26.62,35.2 C25.564,35.2 24.86,35.904 24.86,36.96 C24.86,38.016 25.564,38.72 26.62,38.72 L35.068,38.72 L41.404,43.648 C41.756,43.824 42.108,44 42.46,44 C42.636,44 42.988,44 43.164,43.824 C43.692,43.472 44.22,42.944 44.22,42.24 L44.22,36.256 C47.212,36.256 49.5,34.144 49.5,31.328 L49.5,12.144 C49.5,9.328 47.036,6.864 44.22,6.864 L44.22,6.864 Z" id="Shape"></path>
    </g>
  </g>
</svg>
